<svg id="Layer_1" xmlns="http://www.w3.org/2000/svg" viewBox="0 0 43.4 60"><style>.st0{fill:#fff}</style><path class="st0" d="M39.3 4.1h-7.5C31.4 2.9 30.3 2 28.9 2h-3.2c-1-1.3-2.5-2.1-4.1-2.1-1.6 0-3.1.8-4.1 2.1h-3.2c-1.3 0-2.5.9-2.9 2.1H4.1C1.8 4.1 0 6 0 8.2v47.7C0 58.2 1.8 60 4.1 60h35.2c2.3 0 4.1-1.8 4.1-4.1V8.2c0-2.2-1.8-4.1-4.1-4.1zm-26 5.2V5.1c0-.6.5-1.1 1.1-1.1h3.7c.3 0 .7-.2.8-.5.6-1 1.6-1.6 2.7-1.6s2.2.6 2.7 1.6c.3.3.6.5 1 .5H29c.6 0 1.1.5 1.1 1.1v4.1c0 .6-.5 1.1-1.1 1.1H14.4c-.6.1-1.1-.4-1.1-1zm1.1 3H29c1.3 0 2.5-.9 2.9-2.1h5.5v43.7H6.1V10.2h5.5c.4 1.2 1.5 2.1 2.8 2.1zm27.1 43.6c0 1.2-1 2.1-2.1 2.1H4.1C2.9 58 2 57 2 55.9V8.2C2 7 3 6.1 4.1 6.1h7.3v2.2H5.1c-.5 0-1 .4-1 1v45.6c0 .5.4 1 1 1h33.2c.5 0 1-.4 1-1V9.3c0-.5-.4-1-1-1H32V6.1h7.3c1.2 0 2.1 1 2.1 2.1v47.7z"/><path class="st0" d="M21.7 8.2c.5 0 1-.4 1-1V5.1c0-.5-.4-1-1-1-.5 0-1 .4-1 1v2.1c0 .5.5 1 1 1zm1 13.4H29c.5 0 1-.4 1-1 0-.5-.4-1-1-1h-6.2c-.5 0-1 .4-1 1s.4 1 .9 1zm0 4.2h10.4c.5 0 1-.4 1-1 0-.5-.4-1-1-1H22.7c-.5 0-1 .4-1 1 .1.6.5 1 1 1zm-10-.3c.2.2.4.3.7.3.2 0 .5-.1.7-.3l5.2-5.2c.4-.4.4-1 0-1.4-.4-.4-1-.4-1.4 0l-4.5 4.5L11 21c-.4-.4-1-.4-1.4 0-.4.4-.4 1 0 1.4l3.1 3.1zm10 6.5H29c.5 0 1-.4 1-1 0-.5-.4-1-1-1h-6.2c-.5 0-1 .4-1 1s.4 1 .9 1zm0 4.2h10.4c.5 0 1-.4 1-1 0-.5-.4-1-1-1H22.7c-.5 0-1 .4-1 1 .1.5.5 1 1 1zm-10-.3c.2.2.4.3.7.3.2 0 .5-.1.7-.3l5.2-5.2c.4-.4.4-1 0-1.4-.4-.4-1-.4-1.4 0l-4.5 4.5-2.4-2.4c-.4-.4-1-.4-1.4 0-.4.4-.4 1 0 1.4l3.1 3.1zm10 6.5H29c.5 0 1-.4 1-1 0-.5-.4-1-1-1h-6.2c-.5 0-1 .4-1 1 0 .5.4 1 .9 1zm0 4.1h10.4c.5 0 1-.4 1-1 0-.5-.4-1-1-1H22.7c-.5 0-1 .4-1 1 .1.6.5 1 1 1zm-10-.3c.2.2.4.3.7.3.2 0 .5-.1.7-.3l5.2-5.2c.4-.4.4-1 0-1.4-.4-.4-1-.4-1.4 0l-4.5 4.5-2.4-2.3c-.4-.4-1-.4-1.4 0-.4.4-.4 1 0 1.4l3.1 3z"/></svg>