<svg data-name="Layer 1" xmlns="http://www.w3.org/2000/svg" viewBox="0 0 80 79.9"><title>Marketing</title><g fill="#fff"><path d="M79.8 37.2A40.1 40.1 0 0 0 42.7.1h-1.4v38.5h38.6zm-35.9-1.3v-33a36.8 36.8 0 0 1 9.5 2.3 1.3 1.3 0 0 0 1.3 1.3 1.3 1.3 0 0 0 1-.5l3.5 1.9.3.2a37.6 37.6 0 0 1 12.1 12.3 1.3 1.3 0 0 0-.9-.4 1.4 1.4 0 1 0 1.2.8 38 38 0 0 1 1.9 3.5 1.3 1.3 0 0 0-.4 1 1.3 1.3 0 0 0 1.3 1.3h.1a36.8 36.8 0 0 1 2.2 9.3zm-2.2 5.4L68.5 68l.9-1a40 40 0 0 0 10.5-24.3v-1.4zm26.7 22.9L48.1 43.9h29a37.4 37.4 0 0 1-8.7 20.3z"/><ellipse cx="46.7" cy="5.3" rx="1.3" ry="1.3"/><ellipse cx="46.7" cy="13.3" rx="1.3" ry="1.3"/><ellipse cx="50.7" cy="9.3" rx="1.3" ry="1.3"/><path d="M59.2 8.1l.3.2zm-1.8 1.2a1.3 1.3 0 0 0 2.7 0 1.3 1.3 0 0 0-.6-1.1l-.3-.2h-.5a1.3 1.3 0 0 0-1.3 1.3z"/><circle cx="54.7" cy="13.3" r="1.3"/><circle cx="62.7" cy="13.3" r="1.3"/><circle cx="66.7" cy="17.3" r="1.3"/><circle cx="50.7" cy="17.3" r="1.3"/><circle cx="58.7" cy="17.3" r="1.3"/><ellipse cx="66.7" cy="25.3" rx="1.3" ry="1.3"/><ellipse cx="70.7" cy="29.3" rx="1.3" ry="1.3"/><path d="M46.7 20a1.3 1.3 0 1 0 1.3 1.3 1.3 1.3 0 0 0-1.3-1.3z"/><circle cx="46.7" cy="29.3" r="1.3"/><circle cx="50.7" cy="25.3" r="1.3"/><circle cx="58.7" cy="25.3" r="1.3"/><path d="M54.7 20a1.3 1.3 0 1 0 1.3 1.3 1.3 1.3 0 0 0-1.3-1.3zm8 0a1.3 1.3 0 1 0 1.3 1.3 1.3 1.3 0 0 0-1.3-1.3z"/><circle cx="54.7" cy="29.3" r="1.3"/><ellipse cx="62.7" cy="29.3" rx="1.3" ry="1.3"/><circle cx="74.7" cy="33.3" r="1.3"/><ellipse cx="66.7" cy="33.3" rx="1.3" ry="1.3"/><circle cx="50.7" cy="33.3" r="1.3"/><circle cx="58.7" cy="33.3" r="1.3"/><path d="M38.6 0h-1.4A39.9 39.9 0 0 0 9.8 66.2l.9 1.1 27.9-27.9zM36 38.3l-25 25A37.3 37.3 0 0 1 36 2.9zM12.6 69.1l1.1.9a39.9 39.9 0 0 0 51.6.7l1.1-.9-27.2-27.2zm49.8.5a36.8 36.8 0 0 1-5.8 3.6l4.7-4.7zm-3-3l-9 9a39.2 39.2 0 0 1-4.9 1.1l12-12zm-3.8-3.8L41.4 77.2h-3.7L53.8 61zM51.8 59L34.3 76.8l-3.1-.6 18.9-18.9zM48 55.2L28.2 75.3l-2.7-1 20.8-20.8zm-3.8-3.8L22.9 73.1l-2.4-1.4 22-22zM18.3 70.2L16.6 69l22.6-22.6 1.5 1.5z"/></g></svg>