<svg data-name="Layer 1" xmlns="http://www.w3.org/2000/svg" viewBox="0 0 86.6 88"><title>Social</title><g fill="#fff"><path d="M86.5 63.9c-.6-6.2-5.2-10.7-11-10.7a11 11 0 0 0-8.7 4.8 10.9 10.9 0 0 0-8.6-4.9c-5.8 0-10.4 4.5-11 10.7a10.7 10.7 0 0 0 .3 4.1 17 17 0 0 0 5.5 8.8l12.7 10.9a1.8 1.8 0 0 0 1.2.4 1.9 1.9 0 0 0 1.2-.4l12.5-10.9a17.1 17.1 0 0 0 5.6-8.7 10.6 10.6 0 0 0 .3-4.1zm-3.3 3.4a13.9 13.9 0 0 1-4.5 7.2L66.8 84.6 55 74.4a13.9 13.9 0 0 1-4.5-7.2 8 8 0 0 1-.3-2.9v-.2c.4-4 3.2-8 8-8s6 2.7 7.2 5.5l1.4 3.1 1.4-3.1c1.2-2.7 3.9-5.5 7.2-5.5s7.7 4 8 8.1a7.9 7.9 0 0 1-.3 2.9zm0 0"/><path d="M41.8 80.5h-3.4l-2.9-.5h-.1a39.6 39.6 0 0 1-5.9-1.5h-.2l-2.8-1.1-2.6-1.2-.3-.2-2.3-1.3-.7-.4-2-1.4-.2-.2h.1l12-6.5a6.4 6.4 0 0 0 3.3-5.6v-5.8l-.3-.4A25.3 25.3 0 0 1 29 45v-.6l-.5-.3a2.5 2.5 0 0 1-1.2-2.1v-5.4a2.5 2.5 0 0 1 .8-1.9l.5-.5v-8.6a9.2 9.2 0 0 1 2-6.6c2.2-2.5 6-3.8 11.2-3.8s9 1.3 11.2 3.7a9.3 9.3 0 0 1 2.2 6.7v8.7l.5.5a2.5 2.5 0 0 1 .8 1.9v5.4a2.5 2.5 0 0 1-1.8 2.4 1.5 1.5 0 0 0 .9 2.9 5.5 5.5 0 0 0 3.9-5.3v-5.5a5.6 5.6 0 0 0-1.4-3.6v-7.1a12.3 12.3 0 0 0-2.9-8.9c-2.8-3.2-7.3-4.8-13.5-4.8S31.1 13.8 28.3 17a12.3 12.3 0 0 0-2.9 8.9V33a5.5 5.5 0 0 0-1.3 3.6V42a5.5 5.5 0 0 0 2 4.3 28.3 28.3 0 0 0 4.7 9.7v4.4a3.4 3.4 0 0 1-1.8 3l-12 6.4-1.1.7a38.7 38.7 0 1 1 64.6-28.7 1.5 1.5 0 0 0 3 0 41.8 41.8 0 1 0-70 30.8l1.3 1.1.3.2 2.2 1.7.7.5 2.5 1.6.6.3 2.9 1.6h.2a42 42 0 0 0 10.1 3.2h.3l3.3.4h3.8a1.5 1.5 0 1 0 0-3zm0 0"/></g></svg>