<svg data-name="Layer 1" xmlns="http://www.w3.org/2000/svg" viewBox="0 0 110 132.5"><title>Success</title><g fill="#fff"><path d="M109.8 117.9L92.3 75.6a2.1 2.1 0 1 0-3.9 1.6l15.9 38.3-14.5-4.2a2.1 2.1 0 0 0-2.4 1l-7.3 13.2-17-41.1A42.6 42.6 0 1 0 20.8 68L.2 117.9a2.1 2.1 0 0 0 2.5 2.8l17.1-4.9 8.6 15.6a2.1 2.1 0 0 0 1.9 1.1h.1a2.1 2.1 0 0 0 1.8-1.3l16.3-39.6a2.1 2.1 0 0 0-3.9-1.6l-14.7 35.5-7.3-13.2a2.1 2.1 0 0 0-2.4-1l-14.5 4.2 18.2-43.9A42.5 42.5 0 0 0 55 85.2l3.8-.2 19.1 46.1a2.1 2.1 0 0 0 1.8 1.3h.1a2.1 2.1 0 0 0 1.9-1.1l8.6-15.6 17.1 4.9a2.1 2.1 0 0 0 2.5-2.8zM55 80.9a38.4 38.4 0 1 1 38.4-38.3A38.4 38.4 0 0 1 55 80.9z"/><path d="M79.4 34.7a2.1 2.1 0 0 0-1.7-1.4l-14.2-2.5L56.9 18a2.1 2.1 0 0 0-3.7 0l-6.7 12.8-14.3 2.4a2.1 2.1 0 0 0-1.2 3.6l10.2 10.3-2.1 14.2a2.1 2.1 0 0 0 3 2.2L55 57.1l12.9 6.4.9.2a2.1 2.1 0 0 0 2.1-2.4l-2.1-14.2 10.1-10.3a2.1 2.1 0 0 0 .5-2.1zM65.1 44.9a2.1 2.1 0 0 0-.6 1.8L66.2 58l-10.3-5.1-.9-.2-.9.2L43.8 58l1.7-11.3a2.1 2.1 0 0 0-.6-1.8l-8-8.1 11.3-1.9a2.1 2.1 0 0 0 1.5-1.1L55 23.6l5.3 10.1a2.1 2.1 0 0 0 1.5 1.1l11.3 1.9z"/><path d="M87 44.7a2.1 2.1 0 0 0-2.4 1.8 29.9 29.9 0 1 1 0-7.9 2.1 2.1 0 1 0 4.2-.6 34.1 34.1 0 1 0 0 9 2.1 2.1 0 0 0-1.8-2.3z"/></g></svg>