<svg id="Layer_1" xmlns="http://www.w3.org/2000/svg" viewBox="0 0 95 95"><style>.st0{fill:#fff}</style><path class="st0" d="M92.6 81.2L72.9 61.5c-1.5-1.5-3.6-2.4-5.7-2.4-.6 0-1.1.1-1.7.2l-.1-.1-6.6-6.6a32.6 32.6 0 0 0 6.7-19.8C65.5 14.7 50.8 0 32.7 0 14.7 0 0 14.7 0 32.7c0 18 14.7 32.7 32.7 32.7 7.4 0 14.3-2.5 19.8-6.7l6.6 6.6.1.1c-.1.5-.2 1.1-.2 1.7 0 2.2.8 4.2 2.4 5.7l19.7 19.7c1.5 1.5 3.6 2.4 5.7 2.4 2.2 0 4.2-.8 5.7-2.4 1.5-1.5 2.4-3.6 2.4-5.7.1-2.1-.7-4.1-2.3-5.6zM32.7 62.4c-16.3 0-29.6-13.3-29.6-29.6S16.4 3.2 32.7 3.2s29.6 13.3 29.6 29.6c.1 16.3-13.2 29.6-29.6 29.6zm27.9.1l-5.7-5.7c.7-.6 1.3-1.3 1.9-1.9l5.7 5.7c-.4.3-.7.6-1 .9-.4.3-.7.6-.9 1zm1.6 4.7c0-1.3.5-2.6 1.5-3.6s2.3-1.5 3.6-1.5c1.2 0 2.3.4 3.3 1.2l-7.1 7.1c-.9-.8-1.3-2-1.3-3.2zm28.3 23.2c-1 .9-2.2 1.5-3.6 1.5-1.3 0-2.6-.5-3.6-1.5L65.6 72.7l7.1-7.1 17.8 17.8c.9.9 1.5 2.2 1.5 3.6-.1 1.2-.6 2.5-1.5 3.4z"/><path class="st0" d="M32.7 6.6C18.3 6.6 6.6 18.3 6.6 32.7c0 14.4 11.7 26.2 26.2 26.2S59 47.2 59 32.7C58.9 18.3 47.2 6.6 32.7 6.6zm0 49.2C20 55.8 9.6 45.5 9.6 32.7 9.6 20 20 9.6 32.7 9.6S55.8 20 55.8 32.7c0 12.8-10.3 23.1-23.1 23.1z"/><path class="st0" d="M22 16.3c-5.6 3.6-8.9 9.8-8.9 16.4 0 4.5 1.6 9 4.5 12.5.3.4.7.6 1.2.6.3 0 .7-.1 1-.4.7-.5.7-1.5.2-2.2-2.4-2.9-3.8-6.7-3.8-10.5 0-5.6 2.8-10.8 7.5-13.8.7-.5.9-1.4.4-2.1-.4-.8-1.3-1-2.1-.5zm10.7-3.2c-1.2 0-2.4.1-3.6.3-.8.2-1.4 1-1.2 1.8.1.7.8 1.3 1.5 1.3h.3c1-.2 2-.3 3-.3.8 0 1.5-.7 1.5-1.5.1-.9-.6-1.6-1.5-1.6z"/></svg>