<svg data-name="Layer 1" xmlns="http://www.w3.org/2000/svg" viewBox="0 0 33 23.6"><title>PlayLink</title><path d="M32.4 19.8a4.2 4.2 0 0 1-3.6 3.3 110.5 110.5 0 0 1-12.4.5A110.5 110.5 0 0 1 4 23.1a4.2 4.2 0 0 1-3.4-3.3 37.4 37.4 0 0 1-.6-8 36.2 36.2 0 0 1 .6-8A4.2 4.2 0 0 1 4.1.5 110.5 110.5 0 0 1 16.5 0a110.5 110.5 0 0 1 12.4.5 4.2 4.2 0 0 1 3.6 3.3 37.4 37.4 0 0 1 .6 8 36.2 36.2 0 0 1-.7 8zm-9.4-9l-9.4-5.9a1.2 1.2 0 0 0-1.2 0 1.2 1.2 0 0 0-.6 1v11.8a1.2 1.2 0 0 0 .6 1h.6l.6-.2 9.4-5.7a1.2 1.2 0 0 0 0-2z" fill="#00b3e3"/></svg>