<svg id="Layer_1" xmlns="http://www.w3.org/2000/svg" viewBox="0 0 80 80"><style>.st0{fill:#fff}</style><path class="st0" d="M78.6 71.6l-7-7C76.8 57.8 80 49.3 80 40 80 17.9 62.1 0 40 0S0 17.9 0 40s17.9 40 40 40c9.3 0 17.8-3.2 24.6-8.5l7 7c.9.9 2.2 1.4 3.5 1.4 2.7 0 4.9-2.2 4.9-4.9 0-1.3-.5-2.5-1.4-3.4zm-7.9-10.3c-1-.7-2.7-1.8-5.3-2.9l-5.2-5.2c1-3.8 1.6-7.8 1.7-11.9h15.5c-.3 7.4-2.7 14.3-6.7 20zm6.7-22.6H61.9c-.1-5.7-1.2-10.7-2.7-15.1 6.3-1.6 9.9-3.8 11.5-5 4 5.8 6.4 12.7 6.7 20.1zm-26.2 5.5c.6-.9 1.1-1.9 1.5-2.9h6.6c-.1 3.4-.5 6.6-1.3 9.8l-6.8-6.9zm1.2 4.8L49 52.4l-2.7-2.7c1.2-1 2.4-2.1 3.3-3.3l2.8 2.6zm1.1-10.3c.4-1.7.7-3.4.7-5.2 0-3.1-.7-5.9-1.9-8.6 1.6-.2 3-.5 4.3-.8 1.5 4.2 2.5 9 2.7 14.5h-5.8zm15.7-22.1c-1.5 1.1-4.8 3.1-10.9 4.6C54.4 12 48.3 6 44.4 2.8c10 1.2 18.8 6.3 24.8 13.8zM41.3 3.7c3.3 2.4 10.2 8.3 14.4 18.1-1.4.3-3 .5-4.7.8-2.3-3.6-5.7-6.5-9.7-8.1V3.7zm-5.8-.8c-2.9 2.3-7 6.2-10.5 11.9-2.7 1.2-5.2 3.1-7.1 5.3-3.7-1.3-6-2.7-7.1-3.5C16.8 9.2 25.6 4 35.5 2.9zm3.2.8v9.9c-1.7-.4-3.4-.7-5.2-.7-1.5 0-3.1.2-4.5.5 3.6-4.9 7.5-8.1 9.7-9.7zm-29.4 15c1.2.9 3.5 2.3 7 3.6-2.1 3.2-3.4 7.1-3.4 11.3 0 1.8.3 3.5.7 5.2h-11c.3-7.5 2.7-14.4 6.7-20.1zM2.6 41.3h11.8c1 2.4 2.4 4.6 4.2 6.5.5 3.1 1.2 5.9 2.1 8.5-6.2 1.6-9.8 3.8-11.5 5-3.9-5.7-6.3-12.6-6.6-20zm8.2 22.1c1.4-1.1 4.8-3.1 10.9-4.6C25.5 68 31.6 74 35.5 77.1c-9.9-1.2-18.7-6.3-24.7-13.7zm27.9 12.9c-3.3-2.4-10.2-8.3-14.4-18.1 3.9-.8 8.6-1.3 14.4-1.4v19.5zm0-22.1c-6.2.1-11.3.7-15.4 1.5-.6-1.7-1.1-3.4-1.5-5.3 3.3 2.3 7.4 3.7 11.8 3.7 1.8 0 3.5-.3 5.2-.7v.8zm-5.2-2.6c-10 0-18.1-8.1-18.1-18.1s8.1-18.1 18.1-18.1 18.1 8.1 18.1 18.1c0 10-8.1 18.1-18.1 18.1zm7.8 1.1c1-.4 2-.9 2.9-1.5l3.3 3.3c-2-.2-4.1-.3-6.2-.3v-1.5zm0 4.1c3.2 0 6.2.2 9.1.6l3.9 3.9c-4.2 8-10 12.9-13 15.1V56.8zm3.2 20.3c3.3-2.6 8-7.2 11.7-14l6.5 6.5c-5.2 4.1-11.4 6.7-18.2 7.5zm20.2-9L50.9 54.2l3.3-3.3 13.9 13.9c-1.1 1.1-2.2 2.2-3.4 3.3zm10.4 9.3c-.6 0-1.2-.2-1.7-.7l-6.8-6.8c1.2-1 2.3-2.2 3.3-3.3l6.8 6.8c.4.4.7 1 .7 1.7 0 1.3-1 2.3-2.3 2.3z"/><path class="st0" d="M33.5 18.1C25 18.1 18 25 18 33.6S25 49 33.5 49 49 42.1 49 33.5s-6.9-15.4-15.5-15.4zm5.2 27.3c-1.6.7-3.3 1.1-5.2 1.1s-3.6-.4-5.2-1.1v-2.8c0-2.8 2.3-5.2 5.2-5.2 2.8 0 5.2 2.3 5.2 5.2v2.8zm-9-15.7c0-2.1 1.7-3.9 3.9-3.9s3.9 1.7 3.9 3.9-1.7 3.9-3.9 3.9-3.9-1.8-3.9-3.9zm11.6 14.1v-1.3c0-3.2-2-6-4.8-7.2 2.1-1.1 3.6-3.2 3.6-5.7 0-3.6-2.9-6.5-6.5-6.5s-6.5 2.9-6.5 6.5c0 2.5 1.5 4.7 3.6 5.7-2.8 1.2-4.8 3.9-4.8 7.2v1.3c-3.1-2.4-5.2-6.1-5.2-10.3 0-7.1 5.8-12.9 12.9-12.9 7.1 0 12.9 5.8 12.9 12.9 0 4.3-2.1 8-5.2 10.3z"/></svg>