<svg xmlns="http://www.w3.org/2000/svg" viewBox="770 215 24.294 19.356"><defs><style>.cls-1{fill:#00b3e3}</style></defs><path id="path-2" class="cls-1" d="M-462.693 314.561a.487.487 0 0 1-.3.15h-.037a.487.487 0 0 1-.3-.112l-10.415-8.692-10.415 8.693a.524.524 0 0 1-.375.112.487.487 0 0 1-.3-.15l-.937-1.124a.487.487 0 0 1 .075-.674l10.827-9.029a1.836 1.836 0 0 1 2.285 0l3.671 3.072v-2.922a.487.487 0 0 1 .487-.487h2.885a.487.487 0 0 1 .487.487v6.144l3.3 2.735a.487.487 0 0 1 .075.674zm-2.435 7.156a.974.974 0 0 1-.937.974h-5.769v-5.769h-3.859v5.769h-5.769a.974.974 0 0 1-.974-.974v-7.305l8.654-7.118 8.654 7.118a.188.188 0 0 1 0 .075z" transform="translate(1255.873 -88.335)"/></svg>