<svg data-name="Layer 1" xmlns="http://www.w3.org/2000/svg" viewBox="0 0 495.9 148.8"><title>TopTipsforFuntrepreneursDarkGrey</title><g fill="#333"><path d="M39.7 0a1.5 1.5 0 0 1 1.7 1.7V12a1.5 1.5 0 0 1-1.7 1.7h-12v67.5a1.4 1.4 0 0 1-1.7 1.7H15.3a1.5 1.5 0 0 1-1.7-1.7V13.7H1.7A1.5 1.5 0 0 1 0 12V1.7A1.5 1.5 0 0 1 1.7 0zm7.9 14.9C47.6 5.2 52.8 0 62.5 0h11.6C83.8 0 89 5.2 89 14.9v53c0 9.7-5.2 14.9-14.9 14.9H62.5c-9.7 0-14.9-5.2-14.9-14.9zm23.9 54.6c2.7 0 4.1-1.3 4.1-4.1V17.5c0-2.7-1.4-4.1-4.1-4.1h-6c-2.7 0-4.1 1.4-4.1 4.1v47.8c0 2.8 1.4 4.1 4.1 4.1zM99.4 1.7A1.5 1.5 0 0 1 101 0h24.8c9.7 0 14.9 5.2 14.9 14.9v25.3c0 9.6-5.2 14.9-14.9 14.9h-12.3v26.1a1.5 1.5 0 0 1-1.7 1.7H101a1.5 1.5 0 0 1-1.7-1.7zm23.2 39.7c2.8 0 4.1-1.6 4.1-4.1V17.8c0-2.7-1.3-4.1-4.1-4.1h-9.1v27.7zM214.7 0a1.5 1.5 0 0 1 1.7 1.7V12a1.5 1.5 0 0 1-1.7 1.7h-12v67.5a1.4 1.4 0 0 1-1.7 1.7h-10.7a1.5 1.5 0 0 1-1.7-1.7V13.7h-12a1.5 1.5 0 0 1-1.7-1.7V1.7a1.5 1.5 0 0 1 1.7-1.7zm22.4 0a1.5 1.5 0 0 1 1.7 1.7v79.5a1.5 1.5 0 0 1-1.7 1.7h-10.8a1.5 1.5 0 0 1-1.7-1.7V1.7a1.5 1.5 0 0 1 1.7-1.7zm12 1.7a1.5 1.5 0 0 1 1.6-1.7h24.8c9.7 0 14.9 5.2 14.9 14.9v25.3c0 9.6-5.2 14.9-14.9 14.9h-12.4v26.1a1.5 1.5 0 0 1-1.7 1.7h-10.7a1.5 1.5 0 0 1-1.7-1.7zm23.2 39.7c2.8 0 4.1-1.6 4.1-4.1V17.8c0-2.7-1.3-4.1-4.1-4.1h-9.1v27.7zm54-41.4c9.7 0 14.9 5.2 14.9 14.9v11a1.5 1.5 0 0 1-1.7 1.7h-10.7a1.5 1.5 0 0 1-1.7-1.7v-8.1c0-2.7-1.3-4.1-4.1-4.1h-5a3.8 3.8 0 0 0-4.1 4.1v14.3l24.6 8.1a3.8 3.8 0 0 1 2.7 3.8v23.9c0 9.7-5.2 14.9-14.9 14.9h-11.6c-9.6 0-14.9-5.2-14.9-14.9V57a1.5 1.5 0 0 1 1.7-1.7h10.8A1.4 1.4 0 0 1 314 57v8c0 2.8 1.6 4.1 4.1 4.1h5c2.7 0 4.1-1.3 4.1-4.1V51.2l-24.5-8.1a3.7 3.7 0 0 1-2.8-3.8V14.9c0-9.7 5.3-14.9 14.9-14.9zM27.7 91.2H1.2A1 1 0 0 0 0 92.4v55.3a1 1 0 0 0 1.2 1.2h7.4a1.1 1.1 0 0 0 1.2-1.2v-23h13.5a1 1 0 0 0 1.2-1.2v-7.2a1.1 1.1 0 0 0-1.2-1.2H9.8v-14.4h17.9a1.1 1.1 0 0 0 1.2-1.2v-7.1a1.1 1.1 0 0 0-1.2-1.2zm34.2 0h-6.6a1.4 1.4 0 0 0-1.4 1.4v43.8a2.6 2.6 0 0 1-2.9 2.9h-3.8a2.6 2.6 0 0 1-2.9-2.9V92.7a1.4 1.4 0 0 0-1.4-1.4H36a1.4 1.4 0 0 0-1.4 1.4v45.8c0 6.8 3.6 10.4 10.4 10.4h8c6.8 0 10.4-3.6 10.4-10.4V92.7a1.4 1.4 0 0 0-1.5-1.5zm36.9 0h-7.5a1 1 0 0 0-1.2 1.2v30.4h-.4L78.8 92.2a1.2 1.2 0 0 0-1.3-.9h-7.1a1.1 1.1 0 0 0-1.2 1.2v55.3a1.1 1.1 0 0 0 1.2 1.2h7.5a1 1 0 0 0 1.2-1.2v-30.7h.4l11 30.7a1.2 1.2 0 0 0 1.3.9h7.1a1.1 1.1 0 0 0 1.2-1.2V92.4a1.1 1.1 0 0 0-1.3-1.2zm33.9 0h-26.5a1.1 1.1 0 0 0-1.2 1.2v7.2a1.1 1.1 0 0 0 1.2 1.2h8.4v46.9a1 1 0 0 0 1.2 1.2h7.5a1 1 0 0 0 1.2-1.2v-47h8.4a1 1 0 0 0 1.2-1.2v-7.1a1 1 0 0 0-1.4-1.2zm69.2 0h-26.5a1 1 0 0 0-1.1 1.2v55.3a1 1 0 0 0 1.1 1.2h26.5c.9 0 1.2-.4 1.2-1.2v-7.2c0-.8-.3-1.2-1.2-1.2h-18v-14.5h13.8a1.1 1.1 0 0 0 1.2-1.2v-7.1a1.1 1.1 0 0 0-1.2-1.2h-13.8v-14.5h18c.9 0 1.2-.5 1.2-1.2v-7.2c0-.7-.3-1.2-1.2-1.2zm104.5 0h-26.5a1 1 0 0 0-1.1 1.2v55.3a1 1 0 0 0 1.1 1.2h26.5c.9 0 1.2-.4 1.2-1.2v-7.2c0-.8-.3-1.2-1.2-1.2h-18v-14.5h13.8a1.1 1.1 0 0 0 1.2-1.2v-7.1a1.1 1.1 0 0 0-1.2-1.2h-13.8v-14.5h18c.9 0 1.2-.5 1.2-1.2v-7.2c-.1-.7-.4-1.2-1.2-1.2zm36.5 0h-7.5a1 1 0 0 0-1.2 1.2v30.4h-.4l-10.9-30.6a1.2 1.2 0 0 0-1.3-.9h-7.1a1.1 1.1 0 0 0-1.2 1.2v55.3a1.1 1.1 0 0 0 1.2 1.2h7.5a1 1 0 0 0 1.2-1.2v-30.7h.4l11 30.7a1.2 1.2 0 0 0 1.3.9h7.1a1.1 1.1 0 0 0 1.2-1.2V92.4a1.1 1.1 0 0 0-1.3-1.2zm32.8 6.5a20.8 20.8 0 0 1-2.4-4.9l-.4-1.5H351a1 1 0 0 0-1.1 1.2v55.3a1 1 0 0 0 1.1 1.2h26.5c.9 0 1.2-.4 1.2-1.2v-7.2c0-.8-.3-1.2-1.2-1.2h-18v-14.6h13.8a1.1 1.1 0 0 0 1.2-1.2v-7.1a1.1 1.1 0 0 0-1.2-1.2h-13.8v-14.5h18a1.1 1.1 0 0 0 .8-.3 13.5 13.5 0 0 1-2.6-2.8zm9.9 5.4h-1.3v35.4c0 6.8 3.6 10.4 10.4 10.4h8.1c6.8 0 10.4-3.6 10.4-10.4V92.7a1.4 1.4 0 0 0-1.4-1.4h-6.6a1.4 1.4 0 0 0-1.4 1.4v43.8a2.6 2.6 0 0 1-2.9 2.9h-3.7a2.6 2.6 0 0 1-2.9-2.9v-36.3a15.6 15.6 0 0 1-2.6 1.6 13.1 13.1 0 0 1-6.1 1.3zm87.2-11.9h-8.1c-6.7 0-10.4 3.6-10.4 10.4v17a2.6 2.6 0 0 0 1.9 2.7l17.1 5.6v9.6a2.6 2.6 0 0 1-2.9 2.9h-3.5a2.6 2.6 0 0 1-2.9-2.9V131a1 1 0 0 0-1.2-1.2h-7.5a1 1 0 0 0-1.2 1.2v7.6c0 6.8 3.7 10.4 10.4 10.4h8.1c6.8 0 10.4-3.6 10.4-10.4v-16.8a2.6 2.6 0 0 0-1.9-2.7l-17.1-5.6v-9.9a2.6 2.6 0 0 1 2.9-2.9h3.5a2.6 2.6 0 0 1 2.9 2.9v5.6a1.1 1.1 0 0 0 1.2 1.2h7.5a1 1 0 0 0 1.2-1.2v-7.6c0-6.8-3.6-10.4-10.4-10.4zm-304.2 28v-17.6c0-6.8-3.6-10.4-10.4-10.4h-18.1a1.1 1.1 0 0 0-1.2 1.2v55.3a1.1 1.1 0 0 0 1.2 1.2h7.5a1.1 1.1 0 0 0 1.2-1.2v-18.2h5l4.8 18.3a1.1 1.1 0 0 0 1.2 1h7.5c.8 0 1.2-.4 1-1.3l-5-18.9c3.5-1.4 5.3-4.6 5.3-9.4zm-9.8-2a2.6 2.6 0 0 1-2.9 2.9h-7.1v-19.4h7.1a2.6 2.6 0 0 1 2.9 2.9zm68.5-26H210a1.1 1.1 0 0 0-1.2 1.2v55.3a1.1 1.1 0 0 0 1.2 1.2h7.5a1 1 0 0 0 1.2-1.2v-18.2h8.6c6.8 0 10.4-3.7 10.4-10.4v-17.5c0-6.8-3.6-10.4-10.4-10.4zm.6 25.9a2.6 2.6 0 0 1-2.9 2.9h-6.3v-19.3h6.3a2.6 2.6 0 0 1 2.9 2.9zm45.1 2.1v-17.6c0-6.8-3.6-10.4-10.4-10.4h-18a1.1 1.1 0 0 0-1.2 1.2v55.3a1.1 1.1 0 0 0 1.2 1.2h7.5a1.1 1.1 0 0 0 1.2-1.2v-18.2h5l4.8 18.3a1.1 1.1 0 0 0 1.2 1h7.5c.8 0 1.2-.4 1-1.3l-5-18.9c3.4-1.4 5.2-4.6 5.2-9.4zm-9.8-2a2.6 2.6 0 0 1-2.9 2.9h-7.1v-19.4h7.1a2.6 2.6 0 0 1 2.9 2.9zm185.4 2v-17.6c0-6.8-3.6-10.4-10.4-10.4h-18a1.1 1.1 0 0 0-1.2 1.2v55.3a1.1 1.1 0 0 0 1.2 1.2h7.5a1.1 1.1 0 0 0 1.2-1.2v-18.2h5l4.8 18.3a1.1 1.1 0 0 0 1.2 1h7.5c.8 0 1.2-.4 1-1.3l-5-18.9c3.4-1.4 5.2-4.6 5.2-9.4zm-9.8-2a2.6 2.6 0 0 1-2.9 2.9h-7.1v-19.4h7.1a2.6 2.6 0 0 1 2.9 2.9z"/><path d="M492.5 61.4a70.2 70.2 0 0 1-4.8 5.2 34.7 34.7 0 0 1-5.1 4.2q-2.6 1.7-4.4 1.3a3.5 3.5 0 0 1-1.8-1.2q-.8-.9-.2-3.1l.8-1.7a14.6 14.6 0 0 1 1.2-2l2.1-3.7 2.1-3.5 4-5.7 3.6-5.3 2.7-4.2a9.8 9.8 0 0 0 1.2-2.4 2.3 2.3 0 0 0-.4-1.7 2.4 2.4 0 0 0-2.1-.7l-4.7-.5-3.6-.3h-2.5a2.1 2.1 0 0 0-1.8.7 4.4 4.4 0 0 1-1.4 1.1 2.8 2.8 0 0 1-2.5-.5 2 2 0 0 1-.3-2.3 6.9 6.9 0 0 0 .6-2.4q.1-2.4-1.4-3.2a4.6 4.6 0 0 0-2.6-.4 8.4 8.4 0 0 0-3.2.9 13 13 0 0 0-3.9 3.8 16.8 16.8 0 0 0-2.6 5.3 9 9 0 0 0-.4 1.8 9.5 9.5 0 0 0 0 2.2 8.7 8.7 0 0 0 .5 2.1 3 3 0 0 0 1.1 1.5 28.5 28.5 0 0 1-1.3 3.6q-.9 2.2-2.1 4.4l-.9 1.6a21.1 21.1 0 0 1-3 4.4 19.9 19.9 0 0 1-3.7 3.2 11.6 11.6 0 0 1-3.6 1.7 3.8 3.8 0 0 1-3.1-.4 31.4 31.4 0 0 0 2.2-5.8 75.2 75.2 0 0 0 1.7-7.5 23 23 0 0 0 .2-6.8 10.5 10.5 0 0 0-3.2-6.4 12.2 12.2 0 0 0-7-3.5 22.2 22.2 0 0 0-7.4 0 18.6 18.6 0 0 0-6.4 2.7 26.1 26.1 0 0 0-5.2 4.5 34.1 34.1 0 0 0-4 5.7 53.8 53.8 0 0 0-3 6 32.2 32.2 0 0 0-1.4 4.5 31.7 31.7 0 0 0-.6 3.2l-1.5 1a4.4 4.4 0 0 1-2.9.2 11.8 11.8 0 0 1-2.9-1.1 35.6 35.6 0 0 0-.4-5.2q-.4-2.9-.9-5.8t-1.1-5.2a31.5 31.5 0 0 0-.9-3.4l4.3-7.8 5.7-10.2q1.7-2.9 3.5-6.3l3.4-6.4 3.6-7a5 5 0 0 0 .6-1.4 1.8 1.8 0 0 0-.1-1.2q-.6-1.7-1.5-1.8h-1.6l-3.5.4-3.1.4a2.8 2.8 0 0 0-1.6.9 9 9 0 0 0-1.2 2.1q-.7 1.4-2.3 4l-2.9 5.2-3.2 6-2.8 5.4-2.9 5.5q-1.5 3.1-3.1 6.1a8.1 8.1 0 0 0-4.4 2.2A7 7 0 0 0 385 43a7.1 7.1 0 0 0 .4 3.6 12.4 12.4 0 0 0 1.3 2.6l-.5 1.4-.9 2.4-1.1 2.9q-.6 1.6-1.2 2.9-2 4.6-3.7 9.2a76.6 76.6 0 0 0-2.7 8.9 39.2 39.2 0 0 0-1.1 8.2 17.1 17.1 0 0 0 1.4 7.3 12.1 12.1 0 0 0 2.6 4.1 8.7 8.7 0 0 0 4.2 2.2 10.9 10.9 0 0 0 8.7-2.1 20.3 20.3 0 0 0 5.5-6.3 37.3 37.3 0 0 0 3.4-8 47.2 47.2 0 0 0 1.7-8.5 74.2 74.2 0 0 0 .4-7.5 7.5 7.5 0 0 0 3 .9 6.6 6.6 0 0 0 3-.1l1.1-.6a21.1 21.1 0 0 0 .3 2.2 12.6 12.6 0 0 0 1.6 4.4 15.9 15.9 0 0 0 6 5.4 16.4 16.4 0 0 0 6.5 2 17.7 17.7 0 0 0 9.8-2.7q4.2-2.7 8.2-9.1a7.6 7.6 0 0 0 4.9.8 12.9 12.9 0 0 0 4.8-1.9 18.2 18.2 0 0 0 3-1.9 34.4 34.4 0 0 0 4.5-5.5q2-3.1 3.5-5.7t3.1-6.2a14.4 14.4 0 0 0 4.1.5l3-.5q1.1-.2.7.9a10.6 10.6 0 0 1-.9 2.1l-4.1 6.4a55.7 55.7 0 0 0-3.6 6.4 25.2 25.2 0 0 0-2.1 5.9 8.9 8.9 0 0 0 .3 5 9.5 9.5 0 0 0 3.3 4.1 8.4 8.4 0 0 0 4.2 1.5 11 11 0 0 0 6.2-1.6 43.7 43.7 0 0 0 6.7-4.7 61.9 61.9 0 0 0 6.3-6q2.9-3.2 4.8-5.7v-5.4zm-96.4 11.5a52.3 52.3 0 0 1-1.7 6.3l-1.9 5.4-1.8 3.9a3.8 3.8 0 0 1-2.6 2.4 2.9 2.9 0 0 1-1.5-.2 2.1 2.1 0 0 1-1.2-1.4 10.2 10.2 0 0 1-.2-4.2 36.5 36.5 0 0 1 1.2-5.6q.9-3 2-6.4t2.1-6.5a47.7 47.7 0 0 1 1.8-5l1.3-3.2a10.6 10.6 0 0 0 2.4 2.4 15.3 15.3 0 0 1 .9 5.8 34.4 34.4 0 0 1-.8 6.3zm41.6-25.7a4.6 4.6 0 0 0-1.8 1.2 7 7 0 0 0-1.1 1.5 7.8 7.8 0 0 0-.8 2.6 19 19 0 0 0-.2 5.3 12.9 12.9 0 0 0 2 5.4l-.4.9-.3.6q-2.7 5.5-7.1 7.1a4.9 4.9 0 0 1-2.6.3 4.6 4.6 0 0 1-2.4-1.2 5.1 5.1 0 0 1-1.9-4 31.1 31.1 0 0 1 .4-4.9 30.6 30.6 0 0 1 1.1-4.5 37.8 37.8 0 0 1 2.3-5.7 30.1 30.1 0 0 1 3.4-5.4 12.5 12.5 0 0 1 4.4-3.6 4.4 4.4 0 0 1 2.4-.6 7.5 7.5 0 0 1 2.2.4 4.6 4.6 0 0 1 1.8 1.1 3.1 3.1 0 0 1 .8 2.6 8.4 8.4 0 0 0-2.2 1z"/></g></svg>