<svg xmlns="http://www.w3.org/2000/svg" viewBox="0 0 249.4 76.4"><title>SamsungPresentsWhite-01</title><path d="M171.1 52.8l-.6.7-.7.9-.6.8-.6.7-1.1 1.3-1.2 1.4-1.7 2-2 2.2-1.2 1.4-1.4 1.2-1.1.7a1.9 1.9 0 0 1-1.1.1 1 1 0 0 1-.7-.6 1.6 1.6 0 0 1 0-1 10.7 10.7 0 0 1 .5-1.5l.7-1.8.9-1.8.9-1.9h1.7l1.6-.2a.6.6 0 0 0 .4-.5 3.4 3.4 0 0 0 .1-.7 1.1 1.1 0 0 0-.2-.6 1.2 1.2 0 0 0-.7-.4l-1.2-.2.6-1.1.7-1.2.9-1.4 1.6-2.5q.6-.8.5-1.1t-.5-.5H163l-.6.4-.7 1-.6.9-.5.7-.4.6-.5.7-.6 1-.6 1-.5.8-.2.5h-2.2l-.5.3-.4.6a2 2 0 0 0-.2.6.9.9 0 0 0 .1.5.9.9 0 0 0 .7.5h1.1l-1.6 3.3-.5 1.2-1 1.1-1.4 1.5-1.5 1.2a2.5 2.5 0 0 1-1.2.5.8.8 0 0 1-.9-.5 1.7 1.7 0 0 1 0-1.2l.8-1.7 1.3-2.3.3-.6.5-.9.5-1 .4-.8a1.5 1.5 0 0 0 .2-.6 1.4 1.4 0 0 0-.4-1.1l-.9-.5-1.6-.2-1.2.2-.9.3-.5.3h-.1a2.9 2.9 0 0 0-.1-.7q-.1-.3-.8-.3h-2.3a2.7 2.7 0 0 0-.6.9l-3 5.9a42.7 42.7 0 0 1-3.8 3.9 7.1 7.1 0 0 1-3.4 1.7h-1.3a2.1 2.1 0 0 1-1.4-.7 3.3 3.3 0 0 1-.2-2.8v-.3a2 2 0 0 0 1.1.9h2.2l1.3-.7 1.1-1.1.8-1.2.6-1.3a6.2 6.2 0 0 0 .4-2 2.8 2.8 0 0 0-.7-1.8 3.4 3.4 0 0 0-1.6-.9 4.1 4.1 0 0 0-1.7-.3 6.1 6.1 0 0 0-3.2 1.6l-.9 1.1-.5.9a16.6 16.6 0 0 0-1.5 3.7l-.6.7-1.3 1.3-.9.9-.3.3-.7.6v-.5a22.9 22.9 0 0 0 .3-3.8 14.8 14.8 0 0 0-.4-3.1 5.2 5.2 0 0 1-.3-2.6 3.8 3.8 0 0 1 .4-.8 2.6 2.6 0 0 0 1.1-1.5 1.5 1.5 0 0 0 0-.7c-.3-.8-1.5-.4-1.9.1l-.6.7-.7.9-.6.8-.6.7-1.1 1.2-1.2 1.4-1.7 1.8a43.3 43.3 0 0 1-4.6 4.8 7.1 7.1 0 0 1-3.4 1.7h-1.3a2.1 2.1 0 0 1-1.4-.7 3.3 3.3 0 0 1-.2-2.8v-.3a2 2 0 0 0 1.1.9h2.2l1.3-.7 1.1-1.1.8-1.2.6-1.3a6.2 6.2 0 0 0 .4-2 2.8 2.8 0 0 0-.7-1.8 3.4 3.4 0 0 0-1.6-1.2 4.1 4.1 0 0 0-1.7-.3 6.1 6.1 0 0 0-3.2 1.6l-.9 1.1-.5.9a16.1 16.1 0 0 0-1.7 4.3l-.4.4h-.1l-1.5 1.6-1.6 1.7a1.9 1.9 0 0 1-1.4.4l-.6-.4a1 1 0 0 1-.1-1l.3-.5.4-.6.7-1.2.7-1.1 1.3-1.8 1.1-1.7.8-1.3.4-.7a.7.7 0 0 0-.1-.5.8.8 0 0 0-.6-.2l-1.5-.2h-2.4l-.2.2-.4.3H97a.9.9 0 0 1-.7-.2.6.6 0 0 1-.1-.7 2.2 2.2 0 0 0 .2-.8 1 1 0 0 0-.4-1h-.8l-1 .3h-.1a4.1 4.1 0 0 0-1.2 1.2 5.3 5.3 0 0 0-.8 1.7v.6a3 3 0 0 0 0 .7 2.7 2.7 0 0 0 .2.7l.2.3a.6.6 0 0 1 .1.5l-.3.8a11.7 11.7 0 0 1-1.2 1.9 8.6 8.6 0 0 1-3.3 2.2 2.9 2.9 0 0 1-1.5.1 13.6 13.6 0 0 0 2.5-7.1 2.4 2.4 0 0 0-1-2.3 4.5 4.5 0 0 0-3.8.3.8.8 0 0 0-.4-.8h-3.2l-.4.2-.4.6-.6.9-8.4 17a18.5 18.5 0 0 0-1 2.1.7.7 0 0 0 .2.8l.9.4.9.2a.7.7 0 0 0 .7-.2l.7-1.2 2-3.7 2.3-4.2a2.7 2.7 0 0 0 3.3 1.1 10.9 10.9 0 0 0 4.2-3l1 .2a6.2 6.2 0 0 0 3.1-.9l.4-.3 1.4-1a13.2 13.2 0 0 0 2.3-2.8l.5-.9a.5.5 0 0 1 .6-.3h.9l1.1-.2a12.9 12.9 0 0 1-1.5 3 17.6 17.6 0 0 0-1.1 2 7.9 7.9 0 0 0-.6 1.9 2.8 2.8 0 0 0 .1 1.6 3 3 0 0 0 1 1.3 2.6 2.6 0 0 0 1.3.5 3.4 3.4 0 0 0 2-.5l2.1-1.5 2-1.9.8-.9a5.9 5.9 0 0 0 .5 2.2 3.9 3.9 0 0 0 1.6 1.8 6 6 0 0 0 2.1.8 4.7 4.7 0 0 0 2.4-.2 8.2 8.2 0 0 0 2.1-1.2 15 15 0 0 0 2-1.9l5-5.4.5-.5v-.4l.4-.5 1.2-1.2.7-.6.3 1.5v.2a15.4 15.4 0 0 1 .2 2.5 9 9 0 0 1-.3 2.3 3.8 3.8 0 0 1-1 1.8 2.6 2.6 0 0 1-1.1.6 2.3 2.3 0 0 1-1.7-.2.9.9 0 0 1-.5-.6 1.4 1.4 0 0 0 1.2-.5 1.5 1.5 0 0 0 .5-.9 1 1 0 0 0-.4-.9 1.1 1.1 0 0 0-.9-.3 1.7 1.7 0 0 0-.9.5 3.2 3.2 0 0 0-1 2.1 3.6 3.6 0 0 0 1.5 3 5.3 5.3 0 0 0 1.6.8 3.8 3.8 0 0 0 2.3-.1 6.4 6.4 0 0 0 1.8-.8 20.2 20.2 0 0 0 4.1-3.9 6 6 0 0 0 .5 2.6 3.9 3.9 0 0 0 1.6 1.8 6 6 0 0 0 2.1.8 4.7 4.7 0 0 0 2.4-.2 8.2 8.2 0 0 0 2.1-1.2 15 15 0 0 0 2-1.9l.6-.6-.6 1.3-.5 1.5q-.2.4.5.6h2.4l.3-.2.3-.4.4-.6.7-1.4.7-1.3.7-1.2 1.1-1.7.9-1.4L146 59l.2-.2a1.3 1.3 0 0 1 1.1-.4l.4.2c.1.2 0 .3-.1.4l-.2.4-.2.4-.2.3-1.1 2-1 2a9.6 9.6 0 0 0-.6 1.8 2.5 2.5 0 0 0 .1 1.5 2.3 2.3 0 0 0 .8 1l1.1.5a3.2 3.2 0 0 0 2.1-.2 10.3 10.3 0 0 0 2.3-1.4 17.7 17.7 0 0 0 2.1-2l.5-.5h.1a8.1 8.1 0 0 0-.2 1.1 2.8 2.8 0 0 0 .3 1.5 2.2 2.2 0 0 0 .9 1l1.1.4a4.8 4.8 0 0 0 2.4-.5 10 10 0 0 0 2.6-1.8l1.8-1.8 4-4.5.8-.9.4-.5 1.2-1.2.7-.6.3 1.5v.2a15.4 15.4 0 0 1 .2 2.5 9 9 0 0 1-.3 2.3 3.8 3.8 0 0 1-1 1.8 2.6 2.6 0 0 1-1.1.6 2.3 2.3 0 0 1-1.7-.2.9.9 0 0 1-.5-.6 1.4 1.4 0 0 0 1.2-.5 1.5 1.5 0 0 0 .5-.9 1 1 0 0 0-.4-.9 1.1 1.1 0 0 0-.9-.3 1.7 1.7 0 0 0-.9.5 3.2 3.2 0 0 0-1 2.1 3.6 3.6 0 0 0 1.5 3 5.3 5.3 0 0 0 1.6.8 3.8 3.8 0 0 0 3.5-.8 4.7 4.7 0 0 0 1.4-3 22.9 22.9 0 0 0 .3-3.8 14.8 14.8 0 0 0-.4-3.1 5.2 5.2 0 0 1-.3-2.6 3.8 3.8 0 0 1 .4-.8 2.6 2.6 0 0 0 1.1-1.5 1.5 1.5 0 0 0 0-.7c-.2-.6-1.4-.2-1.8.2zm-40.2 7.9v-.2l1.2-2.1c.3-.4.6-1 1-1.2h1.1a.9.9 0 0 1 .4.5 1.6 1.6 0 0 1 0 .5 7 7 0 0 1-.6 1.9v.3a3.6 3.6 0 0 1-.9 1.1l-.6.3c-.7.3-1.9-.2-1.6-1.1zm-24.6-.2v-.2l1.2-2.1c.3-.4.6-1 1-1.2h1.1a.9.9 0 0 1 .4.5 1.6 1.6 0 0 1 0 .5 7 7 0 0 1-.6 1.9v.3a3.6 3.6 0 0 1-.9 1.1l-.6.3c-.7.4-1.8-.2-1.6-1zm-25.8 4.6a1.1 1.1 0 0 1-1.7-.6l2.3-4.5 1-2.1.3-.2c.5-.3 1.3-.7 1.9-.4a.7.7 0 0 1 .3.6 9 9 0 0 1-4.1 7.2zm126-36.5h-.2l-8.2-27.5h-13.3v34.6h8.8l-.5-28.4h.2l8.8 28.4h12.7V1.1H206l.5 27.5zM38.2 1.1l-6.6 35h9.6l4.9-31.7h.2L51 36.1h9.6L54 1.1H38.2zm38.7 3.6h.2L83 36.1h9.1L98 4.7h.2l.2 31.4h9l-.8-35H92l-4.4 26.8h-.2L83 1.1H68.5l-.8 35h8.9l.3-31.4zM9.5 10.1a4.3 4.3 0 0 1 0-1.8c.3-1.1 1-2.3 3.3-2.3A3 3 0 0 1 16 9.1v2.2h8.9V8.8c0-7.6-7-8.8-12-8.8S1.4 2.1.4 7.8a11.7 11.7 0 0 0 .1 4.7c1.5 7.1 14.2 9.2 16 13.7a4.5 4.5 0 0 1 .1 2.6c-.3 1.2-1.1 2.3-3.5 2.3S9.6 29.9 9.6 28v-3.4H0v2.7c0 7.8 6.3 10.2 13 10.2s11.8-2.2 12.6-8a16.8 16.8 0 0 0 0-5.7C24 16.4 10.5 14.2 9.5 10.1zm119.4 27.2c6.4 0 11.6-2.1 12.5-7.9a16.4 16.4 0 0 0 0-5.7c-1.5-7.3-14.9-9.4-15.9-13.5a4.3 4.3 0 0 1 0-1.8 2.9 2.9 0 0 1 3.2-2.3 3 3 0 0 1 3.3 3.1v2.1h8.8V8.9c0-7.5-6.9-8.7-11.9-8.7s-11.4 2-12.3 7.7a11.7 11.7 0 0 0 .1 4.7c1.5 7.1 14.1 9.1 15.9 13.6a4.5 4.5 0 0 1 .1 2.6c-.3 1.1-1.1 2.3-3.4 2.3s-3.5-1.2-3.5-3.1v-3.4h-9.5v2.7c-.2 7.7 6 10 12.6 10zm46-36.2h-9V27a7 7 0 0 1-.1 1.3 3.6 3.6 0 0 1-6.8 0 6.5 6.5 0 0 1-.1-1.3V1.1h-9v25.1c0 .6.1 2 .1 2.3.6 6.5 5.9 8.6 12.4 8.6s11.8-2.1 12.4-8.6c0-.3.1-1.7.1-2.3zm61.9 15.3v5.1h3.7v5.1a7.3 7.3 0 0 1-.1 1.3c-.2.9-1.1 2.5-3.6 2.5s-3.5-1.6-3.6-2.5a7.7 7.7 0 0 1-.1-1.3v-16a8.2 8.2 0 0 1 .1-1.7 3.3 3.3 0 0 1 3.6-2.5c2.7 0 3.4 1.8 3.6 2.5a8.1 8.1 0 0 1 .1 1.3v2h9v-1.1a21.3 21.3 0 0 0-.1-2.3c-.7-6.6-6.2-8.6-12.5-8.6s-11.7 2.1-12.5 8.6c-.1.6-.1 1.7-.1 2.3v14.7a22.2 22.2 0 0 0 .1 2.3c.6 6.4 6.2 8.6 12.5 8.6s11.9-2.3 12.5-8.6a22.1 22.1 0 0 0 .1-2.3v-9.4z" fill="#fff" data-name="Layer 3"/></svg>